<?xml version="1.0" standalone="no"?>
<!DOCTYPE svg PUBLIC "-//W3C//DTD SVG 20010904//EN"
 "http://www.w3.org/TR/2001/REC-SVG-20010904/DTD/svg10.dtd">
<svg version="1.0" xmlns="http://www.w3.org/2000/svg"
 width="500.000000pt" height="500.000000pt" viewBox="0 0 500.000000 500.000000"
 preserveAspectRatio="xMidYMid meet">

<g transform="translate(0.000000,500.000000) scale(0.100000,-0.100000)"
fill="#000000" stroke="none">
<path d="M2269 3923 c-13 -3 -14 -14 -7 -75 5 -40 11 -74 13 -76 7 -8 85 10
85 19 0 5 -13 9 -29 9 -16 0 -31 6 -34 14 -7 19 1 26 30 26 15 0 23 6 23 16 0
13 -7 15 -30 11 -25 -6 -30 -3 -30 13 0 15 7 20 25 20 16 0 25 6 25 15 0 15
-33 19 -71 8z"/>
<path d="M2606 3914 c-9 -8 -16 -21 -16 -28 0 -17 29 -42 58 -50 12 -4 22 -14
22 -22 0 -25 -30 -28 -54 -5 -26 24 -36 27 -36 8 0 -38 80 -63 108 -35 25 25
14 57 -28 78 -23 12 -38 25 -35 30 8 13 38 13 52 -1 6 -6 17 -9 24 -7 20 7
-27 48 -55 48 -14 0 -32 -7 -40 -16z"/>
<path d="M2083 3889 c-18 -5 -33 -16 -33 -24 0 -10 7 -12 30 -5 35 10 36 8 15
-70 -8 -30 -13 -55 -12 -57 2 -1 25 4 52 10 59 15 78 44 22 33 l-35 -7 13 58
c8 32 14 61 15 66 0 9 -26 8 -67 -4z"/>
<path d="M2797 3825 c-10 -36 -15 -70 -12 -75 8 -14 66 -23 77 -12 6 6 -1 13
-21 20 -22 8 -29 15 -25 27 5 12 14 14 35 10 22 -5 29 -3 29 9 0 8 -10 16 -22
18 -38 5 -29 33 10 30 43 -3 44 23 1 32 -52 10 -54 8 -72 -59z"/>
<path d="M1946 3773 c28 -76 41 -94 49 -72 8 22 -39 133 -58 137 -14 3 -13 -6
9 -65z"/>
<path d="M2448 3833 c12 -2 30 -2 40 0 9 3 -1 5 -23 4 -22 0 -30 -2 -17 -4z"/>
<path d="M2950 3808 c0 -5 15 -15 33 -21 53 -19 228 -110 288 -150 31 -20 92
-68 137 -107 326 -282 500 -716 461 -1152 -5 -61 -12 -115 -16 -120 -3 -6 0
-9 8 -6 20 7 27 71 28 238 1 173 -16 291 -64 438 -98 303 -290 555 -559 733
-121 81 -316 171 -316 147z"/>
<path d="M1763 3763 c-9 -3 -2 -25 22 -74 l35 -69 41 21 c28 14 38 24 31 31
-7 7 -17 6 -32 -2 -26 -14 -21 -18 -54 48 -14 28 -27 52 -29 51 -1 0 -8 -3
-14 -6z"/>
<path d="M1600 3654 c0 -8 7 -46 16 -84 12 -53 19 -68 30 -63 9 3 12 13 9 24
-8 23 36 53 64 44 44 -14 27 15 -32 54 -68 44 -87 50 -87 25z m60 -39 c10 -12
10 -19 1 -28 -9 -9 -14 -9 -21 3 -22 34 -4 54 20 25z"/>
<path d="M2310 3601 c-250 -55 -449 -165 -608 -336 -317 -339 -391 -839 -186
-1248 127 -252 333 -443 586 -543 131 -52 251 -74 404 -74 156 0 221 9 338 46
170 54 301 131 427 251 176 168 283 360 334 598 19 93 19 327 0 420 -95 448
-430 788 -870 881 -117 25 -325 27 -425 5z m739 -597 l20 -26 -23 -61 c-51
-135 -339 -809 -445 -1039 -31 -67 -53 -85 -89 -74 -20 7 -63 91 -159 314
l-58 134 -195 87 c-265 119 -260 116 -260 151 0 20 8 35 25 46 22 14 378 169
915 398 264 113 240 107 269 70z"/>
<path d="M2555 2711 c-351 -151 -500 -219 -494 -225 2 -2 42 -21 89 -41 240
-103 226 -94 258 -160 15 -33 48 -106 73 -162 24 -57 47 -103 50 -103 3 0 13
17 21 38 9 20 88 205 177 411 89 206 161 375 161 377 0 9 -29 -3 -335 -135z"/>
<path d="M1445 3530 c-36 -14 -50 -41 -46 -92 3 -55 89 -77 129 -35 26 28 33
98 7 77 -8 -7 -15 -20 -15 -29 0 -44 -60 -56 -85 -17 -21 32 -7 60 36 75 17 6
28 15 24 21 -7 12 -22 12 -50 0z"/>
<path d="M1262 3330 c-29 -27 -29 -83 -2 -110 12 -12 33 -20 55 -20 22 0 43 8
55 20 12 12 20 33 20 55 0 68 -78 101 -128 55z m86 -22 c28 -28 7 -78 -33 -78
-27 0 -45 18 -45 45 0 27 18 45 45 45 12 0 26 -5 33 -12z"/>
<path d="M1126 3113 c-3 -4 -6 -10 -6 -15 0 -8 112 -68 128 -68 13 0 43 68 32
75 -5 3 -16 -5 -24 -17 l-16 -22 -54 26 c-30 15 -57 24 -60 21z"/>
<path d="M1172 2918 c-52 -178 -56 -205 -57 -413 0 -157 4 -218 18 -283 96
-436 368 -786 762 -977 178 -87 392 -138 556 -133 l94 3 -70 7 c-38 4 -111 12
-161 18 -126 13 -307 70 -437 137 -327 167 -568 450 -682 799 -48 145 -65 255
-65 420 0 152 15 259 54 394 14 47 21 89 17 93 -4 4 -17 -25 -29 -65z"/>
<path d="M3789 2190 c-9 -5 -22 -23 -29 -39 -15 -38 3 -80 43 -99 70 -34 139
52 92 114 -16 21 -19 14 -15 -38 1 -18 -6 -32 -23 -43 -27 -18 -53 -12 -68 17
-11 20 -4 58 11 58 5 0 14 9 20 20 12 22 -2 27 -31 10z"/>
<path d="M3681 1961 l-21 -41 70 -35 70 -35 19 39 c18 35 19 51 1 51 -4 0 -12
-11 -18 -25 -8 -16 -17 -23 -27 -19 -9 4 -14 12 -12 18 19 44 19 46 3 46 -9 0
-16 -3 -16 -7 -1 -19 -18 -33 -33 -27 -13 5 -14 10 -5 30 8 18 8 28 1 35 -8 8
-17 0 -32 -30z"/>
<path d="M3592 1803 c-22 -34 -28 -50 -19 -55 6 -4 15 -1 20 7 12 21 23 19 74
-16 32 -23 48 -28 56 -20 6 6 9 12 6 14 -2 2 -25 18 -51 36 -48 32 -57 45 -38
56 11 7 4 25 -9 25 -5 0 -22 -21 -39 -47z"/>
<path d="M3486 1671 c-16 -16 -27 -33 -25 -38 2 -5 27 -30 55 -55 l51 -48 32
34 c35 36 26 63 -9 31 -11 -10 -26 -15 -36 -11 -15 6 -15 9 5 30 28 29 10 47
-20 20 -15 -13 -22 -15 -31 -6 -9 9 -7 17 7 32 31 35 3 45 -29 11z"/>
<path d="M3252 1458 c-6 -6 -5 -27 3 -61 7 -29 16 -65 19 -80 8 -32 26 -27 26
7 0 25 34 48 65 44 41 -6 28 16 -36 57 -44 29 -70 40 -77 33z m59 -54 c10 -13
10 -17 -1 -24 -18 -11 -30 -3 -30 21 0 23 13 25 31 3z"/>
<path d="M3073 1353 l-32 -16 35 -68 c24 -48 38 -67 48 -63 12 5 13 10 3 31
-10 23 -9 28 11 41 27 18 29 53 4 75 -22 20 -28 20 -69 0z m54 -29 c3 -8 0
-21 -6 -27 -10 -9 -16 -8 -26 7 -8 10 -12 23 -9 27 9 15 34 10 41 -7z"/>
<path d="M2903 1282 c-6 -4 -15 -42 -19 -85 -6 -67 -5 -77 10 -77 9 0 16 8 16
19 0 26 54 46 70 26 6 -8 18 -11 26 -8 14 5 11 10 -68 105 -14 16 -28 24 -35
20z m33 -59 c19 -25 17 -33 -6 -33 -15 0 -20 7 -20 25 0 29 8 32 26 8z"/>
<path d="M2716 1224 c-9 -8 -16 -28 -16 -44 0 -62 -12 -66 -36 -12 -17 38 -28
52 -43 52 -19 0 -21 -6 -21 -64 0 -35 -3 -72 -6 -81 -5 -13 -2 -16 12 -13 15
2 20 14 24 58 l5 55 23 -52 c31 -72 61 -57 62 32 0 36 13 24 30 -27 6 -21 18
-38 26 -38 8 0 14 3 14 7 0 18 -45 143 -51 143 -4 0 -15 -7 -23 -16z"/>
</g>
</svg>
